# xmcd
#
# Track frame offsets: 
#        150
#        13993
#        27613
#        43463
#        55505
#        68360
#        80780
#        94490
#        109405
#        122263
#        144673
#        157063
#        170903
#        185605
#        202600
#        212675
#        224845
#        238230
#        253288
#        270203
#        287766
#        303443
#        330831
#        344383
#
# Disc length: 4768 seconds
#
# Revision: 1
# Processed by: cddbd v1.5.2PL0 Copyright (c) Steve Scherf et al.
# Submitted via: ExactAudioCopy v1.0b2
#
DISCID=76129e18
DTITLE=Shoking Blue - All Gold og the World
DYEAR=2000
DGENRE=Rock
TTITLE0=Venus
TTITLE1=Shocking You
TTITLE2=Blossom Lady
TTITLE3=Inkpot
TTITLE4=Long and Lonesome Road
TTITLE5=Gonna Sing My Song
TTITLE6=I`m a Woman
TTITLE7=California Here I Come
TTITLE8=The Bird of Paradise
TTITLE9=Moonlight Night
TTITLE10=I`ll Follow the Sun
TTITLE11=Never Marry a Railroad Man
TTITLE12=Roll Engine Roll
TTITLE13=Is This a Dream?
TTITLE14=Wild Wind
TTITLE15=Bool Weevil
TTITLE16=I`ll Write Your Name Through the Fire
TTITLE17=Love Machine
TTITLE18=Love Buzz
TTITLE19=Alaska Country
TTITLE20=Sally Was a Good Old Girl
TTITLE21=Demon Lover
TTITLE22=Seven is a Number in Magic
TTITLE23=Hello Darkness
EXTD=
EXTT0=
EXTT1=
EXTT2=
EXTT3=
EXTT4=
EXTT5=
EXTT6=
EXTT7=
EXTT8=
EXTT9=
EXTT10=
EXTT11=
EXTT12=
EXTT13=
EXTT14=
EXTT15=
EXTT16=
EXTT17=
EXTT18=
EXTT19=
EXTT20=
EXTT21=
EXTT22=
EXTT23=
PLAYORDER=
